<svg width="540" height="562" viewBox="0 0 540 562" fill="none" xmlns="http://www.w3.org/2000/svg">
<path fill-rule="evenodd" clip-rule="evenodd" d="M58.3145 37.3452C58.3145 28.318 65.6325 21 74.6597 21H143.121C152.149 21 159.467 28.318 159.467 37.3452V103.743C159.467 112.77 152.149 120.088 143.121 120.088H74.6597C65.6325 120.088 58.3145 112.77 58.3145 103.743V37.3452ZM239.202 48.4019C236.193 48.4019 233.753 50.8412 233.753 53.8503V255.441C233.753 258.45 236.193 260.89 239.202 260.89H533.416C536.425 260.89 538.864 258.45 538.864 255.441V53.8503C538.864 50.8412 536.425 48.4019 533.416 48.4019H239.202ZM14.7277 313.865C11.7186 313.865 9.2793 316.304 9.2793 319.313V520.904C9.2793 523.913 11.7186 526.352 14.7277 526.352H308.942C311.951 526.352 314.39 523.913 314.39 520.904V319.313C314.39 316.304 311.951 313.865 308.942 313.865H14.7277ZM58.3145 177.914C58.3145 168.887 65.6325 161.569 74.6597 161.569H143.121C152.149 161.569 159.467 168.887 159.467 177.914V244.311C159.467 253.339 152.149 260.657 143.121 260.657H74.6597C65.6325 260.657 58.3145 253.339 58.3145 244.311V177.914ZM414.095 461.776C405.068 461.776 397.75 469.094 397.75 478.121V544.518C397.75 553.546 405.068 560.864 414.095 560.864H482.557C491.584 560.864 498.902 553.546 498.902 544.518V478.121C498.902 469.094 491.584 461.776 482.557 461.776H414.095ZM413.006 313.579C403.979 313.579 396.661 320.897 396.661 329.925V396.322C396.661 405.349 403.979 412.667 413.006 412.667H481.468C490.495 412.667 497.813 405.349 497.813 396.322V329.925C497.813 320.897 490.495 313.579 481.468 313.579H413.006Z" fill="black"/>
<path d="M74.6597 20C65.0802 20 57.3145 27.7657 57.3145 37.3452H59.3145C59.3145 28.8703 66.1847 22 74.6597 22V20ZM143.121 20H74.6597V22H143.121V20ZM160.467 37.3452C160.467 27.7657 152.701 20 143.121 20V22C151.596 22 158.467 28.8703 158.467 37.3452H160.467ZM160.467 103.743V37.3452H158.467V103.743H160.467ZM143.121 121.088C152.701 121.088 160.467 113.322 160.467 103.743H158.467C158.467 112.218 151.596 119.088 143.121 119.088V121.088ZM74.6597 121.088H143.121V119.088H74.6597V121.088ZM57.3145 103.743C57.3145 113.322 65.0802 121.088 74.6597 121.088V119.088C66.1847 119.088 59.3145 112.217 59.3145 103.743H57.3145ZM57.3145 37.3452V103.743H59.3145V37.3452H57.3145ZM234.753 53.8503C234.753 51.3935 236.745 49.4019 239.202 49.4019V47.4019C235.64 47.4019 232.753 50.2889 232.753 53.8503H234.753ZM234.753 255.441V53.8503H232.753V255.441H234.753ZM239.202 259.89C236.745 259.89 234.753 257.898 234.753 255.441H232.753C232.753 259.003 235.64 261.89 239.202 261.89V259.89ZM533.416 259.89H239.202V261.89H533.416V259.89ZM537.864 255.441C537.864 257.898 535.872 259.89 533.416 259.89V261.89C536.977 261.89 539.864 259.003 539.864 255.441H537.864ZM537.864 53.8503V255.441H539.864V53.8503H537.864ZM533.416 49.4019C535.872 49.4019 537.864 51.3935 537.864 53.8503H539.864C539.864 50.2889 536.977 47.4019 533.416 47.4019V49.4019ZM239.202 49.4019H533.416V47.4019H239.202V49.4019ZM10.2793 319.313C10.2793 316.856 12.2709 314.865 14.7277 314.865V312.865C11.1663 312.865 8.2793 315.752 8.2793 319.313H10.2793ZM10.2793 520.904V319.313H8.2793V520.904H10.2793ZM14.7277 525.352C12.2709 525.352 10.2793 523.361 10.2793 520.904H8.2793C8.2793 524.465 11.1663 527.352 14.7277 527.352V525.352ZM308.942 525.352H14.7277V527.352H308.942V525.352ZM313.39 520.904C313.39 523.361 311.398 525.352 308.942 525.352V527.352C312.503 527.352 315.39 524.465 315.39 520.904H313.39ZM313.39 319.313V520.904H315.39V319.313H313.39ZM308.942 314.865C311.398 314.865 313.39 316.856 313.39 319.313H315.39C315.39 315.752 312.503 312.865 308.942 312.865V314.865ZM14.7277 314.865H308.942V312.865H14.7277V314.865ZM74.6597 160.569C65.0802 160.569 57.3145 168.335 57.3145 177.914H59.3145C59.3145 169.439 66.1847 162.569 74.6597 162.569V160.569ZM143.121 160.569H74.6597V162.569H143.121V160.569ZM160.467 177.914C160.467 168.335 152.701 160.569 143.121 160.569V162.569C151.596 162.569 158.467 169.439 158.467 177.914H160.467ZM160.467 244.311V177.914H158.467V244.311H160.467ZM143.121 261.657C152.701 261.657 160.467 253.891 160.467 244.311H158.467C158.467 252.786 151.596 259.657 143.121 259.657V261.657ZM74.6597 261.657H143.121V259.657H74.6597V261.657ZM57.3145 244.311C57.3145 253.891 65.0802 261.657 74.6597 261.657V259.657C66.1847 259.657 59.3145 252.786 59.3145 244.311H57.3145ZM57.3145 177.914V244.311H59.3145V177.914H57.3145ZM398.75 478.121C398.75 469.646 405.62 462.776 414.095 462.776V460.776C404.516 460.776 396.75 468.542 396.75 478.121H398.75ZM398.75 544.518V478.121H396.75V544.518H398.75ZM414.095 559.864C405.62 559.864 398.75 552.993 398.75 544.518H396.75C396.75 554.098 404.516 561.864 414.095 561.864V559.864ZM482.557 559.864H414.095V561.864H482.557V559.864ZM497.902 544.518C497.902 552.993 491.032 559.864 482.557 559.864V561.864C492.136 561.864 499.902 554.098 499.902 544.518H497.902ZM497.902 478.121V544.518H499.902V478.121H497.902ZM482.557 462.776C491.032 462.776 497.902 469.646 497.902 478.121H499.902C499.902 468.542 492.136 460.776 482.557 460.776V462.776ZM414.095 462.776H482.557V460.776H414.095V462.776ZM397.661 329.925C397.661 321.45 404.531 314.579 413.006 314.579V312.579C403.426 312.579 395.661 320.345 395.661 329.925H397.661ZM397.661 396.322V329.925H395.661V396.322H397.661ZM413.006 411.667C404.531 411.667 397.661 404.797 397.661 396.322H395.661C395.661 405.901 403.426 413.667 413.006 413.667V411.667ZM481.468 411.667H413.006V413.667H481.468V411.667ZM496.813 396.322C496.813 404.797 489.942 411.667 481.468 411.667V413.667C491.047 413.667 498.813 405.901 498.813 396.322H496.813ZM496.813 329.925V396.322H498.813V329.925H496.813ZM481.468 314.579C489.942 314.579 496.813 321.45 496.813 329.925H498.813C498.813 320.345 491.047 312.579 481.468 312.579V314.579ZM413.006 314.579H481.468V312.579H413.006V314.579Z" fill="black"/>
<rect x="225.754" y="40.2852" width="305.111" height="212.488" rx="5.4484" fill="white" stroke="black" stroke-width="2.17936"/>
<circle cx="480.517" cy="97.5165" r="13.9951" transform="rotate(-0.0850914 480.517 97.5165)" fill="#23A094" stroke="black"/>
<mask id="mask0_935_15804" style="mask-type:alpha" maskUnits="userSpaceOnUse" x="466" y="83" width="29" height="29">
<circle cx="480.516" cy="97.3535" r="13.8317" transform="rotate(-0.0850914 480.516 97.3535)" fill="#23A094" stroke="black"/>
</mask>
<g mask="url(#mask0_935_15804)">
<path d="M487.322 97.0372C486.284 96.152 485.636 94.8937 485.519 93.5344C485.401 92.1751 485.823 90.8241 486.693 89.7738L474.316 89.7922C475.19 90.8399 475.616 92.1896 475.502 93.5493C475.389 94.9089 474.745 96.1691 473.71 97.0574C474.748 97.9425 475.395 99.2007 475.513 100.56C475.63 101.919 475.208 103.27 474.338 104.32L486.715 104.302C485.842 103.254 485.416 101.905 485.529 100.545C485.643 99.1855 486.287 97.9253 487.322 97.0372Z" fill="#FF90E8" stroke="black"/>
<path d="M477.877 104.315L483.176 104.307L483.191 114.511L477.892 114.519L477.877 104.315Z" fill="#F1F333" stroke="black"/>
<path d="M481.218 114.514L481.219 115.014L482.219 115.013L482.218 114.513L481.218 114.514ZM482.205 105.724C482.204 105.448 481.98 105.225 481.704 105.225C481.428 105.225 481.204 105.45 481.205 105.726L482.205 105.724ZM482.218 114.513L482.205 105.724L481.205 105.726L481.218 114.514L482.218 114.513Z" fill="black"/>
<circle cx="478.031" cy="97.0293" r="0.358237" transform="rotate(-0.0850914 478.031 97.0293)" fill="black"/>
<circle cx="483.001" cy="97.0218" r="0.358178" transform="rotate(-0.0850914 483.001 97.0218)" fill="black"/>
<path d="M479.344 98.3397C479.427 98.5062 479.754 98.859 480.394 98.938C481.034 99.017 481.527 98.5698 481.693 98.3362" stroke="black"/>
</g>
<path d="M354.522 87.0005C351.237 87.0005 348.025 89.9756 347.656 94.2744V87.3549H342.938V108.219H347.714V98.12C347.714 95.291 349.718 91.3003 354.522 91.3003V87.0005Z" fill="black"/>
<path d="M404.619 104.879V90.5846H407.386C411.075 90.5846 414.072 92.8902 414.072 97.6166C414.072 102.343 411.075 104.879 407.386 104.879H404.619ZM399.893 108.222H407.962C412.919 108.222 419.029 104.994 419.029 97.6166C419.029 90.354 412.919 87.3568 407.962 87.3568H399.893V108.222Z" fill="black"/>
<path d="M381.808 97.847C381.808 94.0428 383.768 90.9303 386.996 90.9303C390.108 90.9303 391.838 94.0428 391.838 97.847C391.838 101.651 390.108 104.764 386.996 104.764C383.768 104.764 381.808 101.651 381.808 97.847ZM376.967 98.0775C376.967 104.303 380.195 108.683 385.267 108.683C388.956 108.683 391.146 106.262 392.299 102.343V108.222H397.024V87.3567H392.299V92.89C391.261 89.2011 389.071 87.0109 385.613 87.0109C380.425 87.0109 376.967 91.7373 376.967 98.0775Z" fill="black"/>
<path d="M269.338 108.684C263.458 108.684 260 103.957 260 98.0782C260 91.9684 263.804 87.0115 271.067 87.0115C278.56 87.0115 281.096 92.0837 281.211 94.9657H275.793C275.678 93.3518 274.294 90.9309 270.951 90.9309C267.378 90.9309 265.072 94.0434 265.072 97.8476C265.072 101.652 267.378 104.764 270.951 104.764C274.179 104.764 275.563 102.228 276.139 99.6921H270.951V97.617H281.837V108.223H277.061V101.536C276.715 103.957 275.217 108.684 269.338 108.684Z" fill="black"/>
<path d="M291.518 108.683C287.023 108.683 284.256 105.686 284.256 99.6916V87.3568H289.098V99.6916C289.098 102.804 290.596 104.303 293.132 104.303C298.089 104.303 299.934 98.1929 299.934 93.9277V87.3568H304.775V108.222H300.049V100.499C299.127 104.764 296.591 108.683 291.518 108.683Z" fill="black"/>
<path d="M333.708 87C329.578 87 326.972 90.9903 326.121 94.6799C325.976 89.7354 323.544 87 319.654 87C316.293 87 313.174 89.9975 312.364 94.7396V87.3549H307.645V108.221H312.425V100.74C312.425 98.886 313.198 91.2757 318.01 91.2757C321.127 91.2757 321.452 94.0876 321.452 97.9313V108.221H326.231V100.74C326.231 98.886 327.036 91.2757 331.848 91.2757C334.962 91.2757 335.284 94.0876 335.284 97.9313V108.221H340.069V95.8787C340.091 89.9578 338 87 333.708 87Z" fill="black"/>
<path d="M364.778 87C358.59 87 354.396 91.8524 354.396 97.8416C354.396 104.441 358.385 108.683 364.778 108.683C370.967 108.683 375.235 103.831 375.235 97.8416C375.235 91.2424 371.169 87 364.778 87ZM364.778 104.99C361.175 104.99 358.842 101.94 358.842 97.8416C358.842 93.7434 361.184 90.6933 364.778 90.6933C368.373 90.6933 370.62 93.7434 370.62 97.8416C370.62 101.94 368.37 104.99 364.778 104.99Z" fill="black"/>
<rect x="360.921" y="61.0601" width="14.7532" height="3.68831" rx="1.84415" fill="#23A094" stroke="black" stroke-width="0.54484"/>
<rect x="381.207" y="61.0588" width="14.7532" height="3.68831" rx="1.84415" fill="#23A094" stroke="black" stroke-width="0.54484"/>
<rect x="260.165" y="137" width="69.839" height="81.1034" rx="4.50575" fill="white" stroke="black" stroke-width="1.22163"/>
<rect x="305.223" y="202.334" width="18.023" height="6" rx="3" fill="#FF90E8" stroke="black" stroke-width="1.22163"/>
<rect x="266.924" y="188.564" width="56.3218" height="4" rx="2" fill="#D6D3D1"/>
<path d="M270.446 203.256C270.677 202.85 271.262 202.85 271.493 203.256L272.124 204.368C272.209 204.519 272.356 204.626 272.526 204.66L273.778 204.917C274.236 205.01 274.417 205.567 274.102 205.912L273.24 206.855C273.122 206.984 273.066 207.156 273.086 207.329L273.229 208.599C273.281 209.063 272.807 209.407 272.382 209.214L271.219 208.686C271.06 208.614 270.879 208.614 270.721 208.686L269.557 209.214C269.132 209.407 268.658 209.063 268.71 208.599L268.853 207.329C268.873 207.156 268.817 206.984 268.7 206.855L267.838 205.912C267.522 205.567 267.703 205.01 268.161 204.917L269.413 204.66C269.583 204.626 269.73 204.519 269.816 204.368L270.446 203.256Z" fill="#FFC900"/>
<path d="M260.165 141.506C260.165 139.017 262.182 137 264.671 137H325.498C327.987 137 330.004 139.017 330.004 141.506V179.805H260.165V141.506Z" fill="#E7E5E4" stroke="black" stroke-width="1.22163"/>
<path d="M316.011 161.596C315.768 158.773 314.982 156.285 313.672 154.204C312.351 152.097 310.477 150.394 308.253 149.279C307.88 148.472 307.318 147.768 306.614 147.224C305.911 146.681 305.086 146.316 304.211 146.16C303.414 146.007 302.592 146.028 301.804 146.224C301.015 146.419 300.279 146.783 299.645 147.291C296.637 147.255 293.899 147.92 291.504 149.269C289.656 150.315 288.053 151.746 286.804 153.464L285.79 153.272C285.723 153.259 285.658 153.247 285.589 153.234L276.505 151.518C275.676 151.29 273.58 150.908 271.544 152.085C270.406 152.741 268.941 154.097 268.427 156.823C267.867 159.784 269.072 162.472 271.732 164.198C273.349 165.246 275.156 165.734 276.37 166.008C277.891 166.352 282.745 167.33 283.7 167.522L283.741 167.53L283.87 167.554L283.938 167.567L284.032 167.066L283.948 167.569C284.4 167.654 286.652 168.085 291.034 168.913L299.749 170.559L308.024 172.122L311.111 172.705C311.982 172.872 312.883 172.709 313.639 172.246C314.395 171.784 314.952 171.056 315.199 170.205C315.248 170.042 316.397 166.099 316.011 161.596Z" fill="#23A094" stroke="black" stroke-miterlimit="10"/>
<path d="M302.234 151.262C301.929 151.213 301.631 151.172 301.338 151.139L301.348 151.088C301.515 150.201 302.489 149.643 303.524 149.839C304.558 150.034 305.26 150.912 305.093 151.795L305.037 151.957C304.802 151.874 304.56 151.796 304.312 151.724C303.828 151.582 303.316 151.459 302.775 151.357C302.591 151.318 302.412 151.287 302.234 151.262Z" fill="black"/>
<path d="M280.12 162.164C281.279 163.355 282.652 163.836 284.379 164.19C283.28 163.969 278.583 163.021 277.13 162.693C275.476 162.319 271.224 161.215 271.897 157.648C272.571 154.082 275.636 155.159 275.636 155.159C279.203 155.833 277.595 159.574 280.12 162.164Z" fill="black"/>
<path d="M284.379 164.19C282.652 163.836 281.279 163.355 280.12 162.164C277.595 159.574 279.203 155.833 275.636 155.159C275.636 155.159 272.574 154.088 271.9 157.654C271.227 161.221 275.479 162.325 277.129 162.698C278.586 163.027 283.281 163.974 284.378 164.195" stroke="black" stroke-linecap="round" stroke-linejoin="round"/>
<path d="M284.38 164.19C284.457 164.204 284.534 164.219 284.612 164.234" stroke="black" stroke-linecap="round" stroke-linejoin="round"/>
<path d="M288.61 157.542C288.61 157.542 289.812 154.47 293.228 152.541C295.161 151.454 297.802 150.729 301.338 151.135C301.631 151.169 301.929 151.21 302.234 151.258C302.41 151.292 302.59 151.318 302.771 151.353C303.312 151.455 303.825 151.577 304.308 151.72C304.557 151.792 304.799 151.869 305.033 151.952C315.79 155.723 311.745 169.363 311.745 169.363L308.654 168.779L298.903 166.937C292.282 165.686 285.419 164.389 284.611 164.237" stroke="black" stroke-linecap="round" stroke-linejoin="round"/>
<path d="M275.636 155.159L287.348 157.371C287.777 157.452 288.187 157.549 288.577 157.66C290.623 158.24 292.163 159.24 293.234 160.719C293.409 160.959 293.57 161.21 293.715 161.469C293.914 161.829 294.077 162.207 294.202 162.598C294.417 163.244 294.56 163.869 294.843 164.442C295.346 165.471 296.301 166.327 298.923 166.822C298.923 166.822 300.009 157.492 302.231 151.265C302.231 151.265 302.231 151.265 302.232 151.258" stroke="black" stroke-linecap="round" stroke-linejoin="round"/>
<path d="M301.344 151.083C301.511 150.196 302.485 149.639 303.52 149.834C304.555 150.03 305.256 150.907 305.089 151.79" stroke="black" stroke-linecap="round" stroke-linejoin="round"/>
<path d="M279.431 155.931L279.441 155.933C279.532 155.951 280.267 156.193 280.928 159.415C281.504 162.234 285.521 162.808 288.316 163.336C291.704 163.976 294.759 164.43 294.759 164.43" stroke="black" stroke-linecap="round" stroke-linejoin="round"/>
<path d="M282.42 156.496L282.427 156.497C282.491 156.51 283.005 156.676 283.466 158.931C283.869 160.9 286.677 161.301 288.63 161.67C290.999 162.118 294.055 162.609 294.055 162.609" stroke="black" stroke-linecap="round" stroke-linejoin="round"/>
<path d="M284.987 156.919C284.992 156.919 284.997 156.92 285.001 156.922C285.066 156.942 285.345 157.105 285.599 158.342C285.834 159.493 287.475 159.727 288.617 159.943C290.001 160.204 293.175 160.754 293.175 160.754" stroke="black" stroke-linecap="round" stroke-linejoin="round"/>
<path d="M308.654 168.779C308.97 166.129 310.936 155.725 304.295 151.763" stroke="black" stroke-linecap="round" stroke-linejoin="round"/>
<path d="M295.718 158.7C295.79 158.698 297.33 158.665 297.342 159.87C297.355 161.104 293.715 161.467 293.715 161.467" stroke="black" stroke-linecap="round" stroke-linejoin="round"/>
<path d="M293.693 156.459C293.953 156.301 297.334 154.313 298.262 155.671C299.208 157.059 295.845 158.638 295.718 158.699" stroke="black" stroke-linecap="round" stroke-linejoin="round"/>
<path d="M293.683 156.465L293.693 156.459" stroke="black" stroke-linecap="round" stroke-linejoin="round"/>
<path d="M293.243 152.572C293.243 152.572 295.902 151.535 296.156 153.122C296.399 154.638 293.917 156.312 293.692 156.462" stroke="black" stroke-linecap="round" stroke-linejoin="round"/>
<rect x="343.521" y="137" width="69.839" height="81.1034" rx="4.50575" fill="white" stroke="black" stroke-width="1.33119"/>
<rect x="388.578" y="202.334" width="18.023" height="6" rx="3" fill="#FF90E8" stroke="black" stroke-width="1.22163"/>
<rect x="350.279" y="188.564" width="56.3218" height="4" rx="2" fill="#D6D3D1"/>
<path d="M343.521 141.506C343.521 139.017 345.538 137 348.026 137H408.854C411.342 137 413.36 139.017 413.36 141.506V179.805H343.521V141.506Z" fill="#E7E5E4" stroke="black" stroke-width="1.33119"/>
<path d="M353.802 203.256C354.032 202.85 354.618 202.85 354.849 203.256L355.479 204.368C355.565 204.519 355.712 204.626 355.882 204.66L357.134 204.917C357.591 205.01 357.772 205.567 357.457 205.912L356.595 206.855C356.478 206.984 356.422 207.156 356.441 207.329L356.584 208.599C356.637 209.063 356.163 209.407 355.737 209.214L354.574 208.686C354.416 208.614 354.234 208.614 354.076 208.686L352.913 209.214C352.487 209.407 352.013 209.063 352.066 208.599L352.209 207.329C352.228 207.156 352.172 206.984 352.055 206.855L351.193 205.912C350.878 205.567 351.059 205.01 351.517 204.917L352.768 204.66C352.939 204.626 353.085 204.519 353.171 204.368L353.802 203.256Z" fill="#FFC900"/>
<path d="M357.496 158.705L357.496 158.705L357.503 158.699L357.608 158.601C357.609 158.601 357.609 158.601 357.609 158.6C359.813 156.589 360.892 155.047 361.412 154.096L361.412 154.096C363.672 149.967 366.939 148.938 369.281 148.786C370.081 148.737 370.884 148.789 371.671 148.941L371.935 148.991L372.123 148.799C372.881 148.024 373.853 147.265 375.011 146.833L375.011 146.833C376.893 146.128 379.036 146.109 381.1 146.747L381.478 146.864L381.678 146.523L383.179 143.971L383.179 143.971C383.488 143.444 383.951 143.025 384.507 142.771C385.062 142.516 385.682 142.439 386.283 142.548C386.884 142.658 387.436 142.95 387.866 143.384C388.285 143.808 388.568 144.349 388.676 144.935V145.596L389.336 145.374L394.383 143.674C394.957 143.48 395.577 143.467 396.159 143.635C396.741 143.803 397.258 144.144 397.641 144.614C398.024 145.083 398.255 145.658 398.302 146.262C398.35 146.866 398.212 147.47 397.907 147.993L397.907 147.993L397.9 148.005L397.895 148.015L396.107 151.105L395.753 151.717L396.448 151.847L397.909 152.12L397.909 152.12C398.516 152.233 399.074 152.531 399.503 152.975C399.933 153.418 400.214 153.984 400.308 154.594C400.402 155.204 400.304 155.828 400.027 156.38C399.751 156.932 399.309 157.385 398.764 157.675L398.764 157.675L396.172 159.055L395.682 159.316L395.993 159.776L396.844 161.036L396.844 161.036C397.174 161.523 397.352 162.096 397.356 162.683C397.36 163.27 397.19 163.845 396.868 164.337C396.546 164.828 396.085 165.212 395.545 165.442C395.004 165.672 394.408 165.737 393.83 165.629L393.829 165.629L393.33 165.536L392.629 165.406L392.745 166.109L393.067 168.059C393.165 168.655 393.08 169.267 392.822 169.814C392.563 170.36 392.145 170.815 391.622 171.118C391.098 171.421 390.495 171.558 389.892 171.51C389.29 171.462 388.716 171.232 388.247 170.85C388.247 170.85 388.247 170.85 388.247 170.85L385.246 168.404L384.896 168.119L384.576 168.438C383.033 169.983 381.13 171.12 379.038 171.748L379.038 171.748L379.032 171.75C377.263 172.306 375.42 172.593 373.565 172.601C369.716 172.6 366.004 171.302 362.622 168.721C360.377 166.994 358.456 164.884 356.945 162.489C356.578 161.894 356.431 161.189 356.532 160.498C356.632 159.805 356.974 159.17 357.496 158.705Z" fill="#FF90E8" stroke="black"/>
<path d="M385.54 152.176C385.54 152.176 385.54 152.212 385.53 152.277C385.467 152.993 384.965 157.322 382.046 160.564L381.883 160.32C380.201 159.462 377.222 160.271 376.153 161.661C370.359 161.252 367.946 164.389 367.946 164.389L367.93 164.506C362.638 163.763 359.557 161.049 359.449 160.952C359.586 160.92 364.137 159.831 365.789 159.2C367.17 158.672 368.011 157.865 369.047 157.291L369.156 157.328C369.309 157.382 370.967 159.919 372.248 160.097C372.963 160.193 374.313 159.866 375.497 159.47C376.436 159.158 377.271 158.803 377.612 158.585C378.545 157.982 377.884 154.174 377.884 154.174L377.857 154.107C378.583 153.799 379.424 153.62 380.563 153.597C382.798 153.547 385.54 152.176 385.54 152.176Z" fill="black"/>
<path d="M359.449 160.95C359.7 160.706 362.497 158.292 363.996 155.551C365.495 152.81 367.516 151.908 369.445 151.782C370.667 151.728 371.882 151.985 372.978 152.528C372.978 152.528 374.242 150.314 376.024 149.647C377.805 148.98 380.19 149.247 382.251 150.586C382.369 150.665 382.487 150.739 382.6 150.809C384.45 151.954 385.54 152.172 385.54 152.172C385.54 152.172 382.796 153.536 380.562 153.586C379.423 153.609 378.582 153.788 377.856 154.096C377.157 154.394 376.564 154.807 375.913 155.314C375.263 155.821 374.909 156.121 374.395 156.307C373.85 156.506 373.118 156.567 371.683 156.579C370.759 156.577 369.85 156.817 369.047 157.273C368.011 157.852 367.17 158.659 365.789 159.182C364.137 159.814 359.592 160.902 359.449 160.935" stroke="black" stroke-linecap="round" stroke-linejoin="round"/>
<path d="M359.449 160.95C359.56 161.142 366.306 172.567 378.123 168.928C381.16 167.991 383.047 166.111 384.203 163.94C386.886 158.895 385.615 152.276 385.615 152.276" stroke="black" stroke-linecap="round" stroke-linejoin="round"/>
<path d="M385.54 152.176C385.54 152.176 385.54 152.212 385.53 152.277C385.467 152.993 384.965 157.322 382.046 160.564C380.777 161.983 379.148 163.034 377.331 163.605C373.716 164.761 370.551 164.875 367.93 164.507C362.638 163.764 359.557 161.051 359.449 160.954" stroke="black" stroke-linecap="round" stroke-linejoin="round"/>
<path d="M369.157 157.321C369.31 157.376 370.969 159.912 372.25 160.091C372.964 160.186 374.315 159.859 375.499 159.463C376.437 159.151 377.272 158.797 377.613 158.578C378.546 157.976 377.886 154.167 377.886 154.167" stroke="black" stroke-linecap="round" stroke-linejoin="round"/>
<path d="M395.305 146.52L395.304 146.522L391.034 153.901L397.335 155.074L391.329 158.269L394.345 162.731L388.967 161.726L390.096 168.571L384.516 164.02" stroke="black" stroke-linecap="round" stroke-linejoin="round"/>
<path d="M382.607 150.796L385.717 145.503C385.717 145.503 386.52 150.187 386.672 150.19C386.825 150.192 395.173 146.575 395.303 146.52" stroke="black" stroke-linecap="round" stroke-linejoin="round"/>
<path d="M374.436 156.421L375.475 159.347" stroke="black" stroke-linecap="round" stroke-linejoin="round"/>
<path d="M367.946 164.39C367.946 164.39 370.359 161.254 376.154 161.663C377.222 160.272 380.201 159.463 381.883 160.321" stroke="black" stroke-linecap="round" stroke-linejoin="round"/>
<rect x="426.877" y="137" width="69.839" height="81.1034" rx="4.50575" fill="white" stroke="black" stroke-width="1.33119"/>
<rect x="471.934" y="202.334" width="18.023" height="6" rx="3" fill="#FF90E8" stroke="black" stroke-width="1.22163"/>
<rect x="434.099" y="188" width="56.3218" height="4" rx="2" fill="#D6D3D1"/>
<path d="M426.877 141.506C426.877 139.017 428.894 137 431.383 137H492.21C494.699 137 496.716 139.017 496.716 141.506V179.805H426.877V141.506Z" fill="#E7E5E4" stroke="black" stroke-width="1.33119"/>
<path d="M437.159 203.256C437.39 202.85 437.975 202.85 438.206 203.256L438.836 204.368C438.922 204.519 439.069 204.626 439.239 204.66L440.491 204.917C440.949 205.01 441.13 205.567 440.815 205.912L439.952 206.855C439.835 206.984 439.779 207.156 439.799 207.329L439.942 208.599C439.994 209.063 439.52 209.407 439.095 209.214L437.931 208.686C437.773 208.614 437.592 208.614 437.434 208.686L436.27 209.214C435.845 209.407 435.371 209.063 435.423 208.599L435.566 207.329C435.586 207.156 435.53 206.984 435.413 206.855L434.55 205.912C434.235 205.567 434.416 205.01 434.874 204.917L436.126 204.66C436.296 204.626 436.443 204.519 436.529 204.368L437.159 203.256Z" fill="#FFC900"/>
<path d="M485.542 154.62L469.413 154.552C468.436 153.364 467.131 152.307 465.547 151.435C465.902 151.016 466.188 150.542 466.392 150.031C466.754 149.126 466.848 148.135 466.662 147.178C466.476 146.221 466.019 145.338 465.345 144.634C464.671 143.93 463.808 143.436 462.861 143.21C461.914 142.985 460.922 143.037 460.003 143.361C459.813 143.103 459.59 142.871 459.34 142.672L458.314 141.859C457.595 141.288 456.685 141.014 455.771 141.093C454.857 141.172 454.007 141.597 453.396 142.283C452.425 143.369 451.258 144.663 450.986 144.955C450.876 145.061 450.773 145.174 450.678 145.294L450.651 145.283C449.849 144.96 448.974 144.864 448.121 145.005C447.268 145.146 446.47 145.519 445.814 146.083C445.158 146.646 444.669 147.379 444.4 148.202C444.131 149.025 444.093 149.906 444.29 150.749C443.819 150.958 443.361 151.182 442.925 151.424C439.209 153.472 437.073 156.562 437.061 159.903C437.059 161.2 437.369 162.478 437.965 163.629C439.507 167.62 442.446 170.353 442.778 170.654C442.85 170.719 442.925 170.782 443.004 170.842C445.811 172.989 449.995 174.234 454.485 174.253L454.509 174.253C460.34 174.277 465.526 172.24 468.045 168.951C468.061 168.931 468.075 168.911 468.09 168.891C468.846 167.823 469.498 166.684 470.036 165.491L485.505 165.556C486.228 165.57 486.948 165.44 487.62 165.172C488.293 164.905 488.906 164.507 489.424 164.001C489.942 163.494 490.354 162.89 490.636 162.222C490.918 161.555 491.065 160.838 491.068 160.113C491.071 159.388 490.931 158.67 490.654 158C490.377 157.331 489.97 156.723 489.457 156.212C488.944 155.701 488.334 155.297 487.663 155.025C486.993 154.752 486.275 154.615 485.551 154.623L485.542 154.62Z" fill="#F1F333" stroke="black" stroke-miterlimit="10"/>
<path d="M467.916 160.002C467.915 160.263 467.89 160.523 467.842 160.78C467.653 161.795 467.101 162.751 466.26 163.604L466.1 163.592C465.794 161.888 464.294 160.377 462.072 159.325C462.13 159.248 462.178 159.164 462.213 159.074C462.269 158.938 462.297 158.792 462.297 158.646C462.296 158.499 462.266 158.354 462.209 158.218C462.152 158.083 462.069 157.961 461.964 157.858C461.86 157.755 461.736 157.674 461.6 157.62C461.463 157.565 461.318 157.539 461.171 157.541C461.025 157.543 460.88 157.575 460.746 157.633C460.611 157.692 460.49 157.777 460.389 157.883C460.287 157.989 460.208 158.114 460.155 158.251C460.116 158.35 460.091 158.453 460.081 158.559L460.064 158.559C458.293 158.04 456.456 157.779 454.611 157.783C453.608 157.778 452.605 157.847 451.612 157.99C451.397 157.669 451.107 157.404 450.768 157.219C449.93 156.755 448.92 157.16 448.992 157.906C449.007 158.124 449.108 158.327 449.272 158.47L449.203 158.507C445.541 159.573 443.039 161.698 443.019 164.157C442.36 163.628 441.799 162.986 441.362 162.262C440.935 161.553 440.707 160.742 440.702 159.915C440.72 155.738 446.818 152.376 454.331 152.396C454.548 152.397 454.658 152.398 454.872 152.399L454.94 152.436C454.529 153.227 454.53 153.97 454.817 154.64C455.195 155.522 456.242 155.821 456.641 155.187C457.137 154.399 456.102 153.856 456.659 153.04C456.813 152.831 457.016 152.664 457.249 152.552L457.316 152.587C462.343 153.229 466.313 155.415 467.525 158.194C467.781 158.763 467.914 159.378 467.916 160.002V160.002Z" fill="black"/>
<path d="M462.07 159.324C464.293 160.376 465.792 161.886 466.098 163.59" stroke="black" stroke-linecap="round" stroke-linejoin="round"/>
<path d="M451.601 157.991L451.616 157.991C452.609 157.848 453.612 157.779 454.615 157.784C456.46 157.78 458.297 158.041 460.068 158.56" stroke="black" stroke-linecap="round" stroke-linejoin="round"/>
<path d="M443.025 164.176L443.025 164.158C443.045 161.699 445.547 159.572 449.209 158.508" stroke="black" stroke-linecap="round" stroke-linejoin="round"/>
<path d="M467.868 160.694C467.868 160.723 467.857 160.753 467.852 160.782C467.785 161.154 467.697 161.52 467.596 161.876C466.821 164.596 465.241 166.75 465.241 166.75C463.478 169.051 459.362 170.658 454.571 170.642C450.734 170.626 447.337 169.58 445.237 167.974C445.237 167.974 442.609 165.606 441.348 162.271" stroke="black" stroke-linecap="round" stroke-linejoin="round"/>
<path d="M457.321 152.589C462.348 153.231 466.318 155.418 467.53 158.197C467.783 158.764 467.915 159.378 467.916 159.999C467.915 160.26 467.89 160.521 467.842 160.777C467.653 161.792 467.101 162.748 466.26 163.602C463.948 165.951 459.452 167.536 454.287 167.514C449.596 167.494 445.465 166.166 443.029 164.149C442.37 163.62 441.809 162.978 441.371 162.253C440.945 161.545 440.717 160.734 440.712 159.906C440.73 155.73 446.827 152.367 454.341 152.388C454.558 152.389 454.667 152.389 454.882 152.39" stroke="black" stroke-linecap="round" stroke-linejoin="round"/>
<path d="M449.994 150.1C449.911 150.309 449.769 150.488 449.584 150.615C449.4 150.742 449.182 150.811 448.958 150.814C448.734 150.817 448.514 150.753 448.326 150.631C448.138 150.509 447.991 150.334 447.903 150.128C447.814 149.922 447.789 149.694 447.83 149.474C447.87 149.253 447.976 149.05 448.132 148.889C448.288 148.729 448.489 148.618 448.708 148.572C448.927 148.525 449.154 148.545 449.362 148.628C449.641 148.739 449.864 148.957 449.983 149.233C450.101 149.509 450.105 149.821 449.994 150.1V150.1Z" stroke="black" stroke-linecap="round" stroke-linejoin="round"/>
<path d="M460.081 158.559C460.092 158.453 460.117 158.35 460.156 158.251C460.209 158.114 460.288 157.989 460.389 157.883C460.491 157.777 460.612 157.692 460.747 157.633C460.881 157.575 461.026 157.543 461.172 157.541C461.319 157.539 461.464 157.565 461.6 157.62C461.737 157.674 461.861 157.755 461.965 157.858C462.07 157.961 462.153 158.083 462.21 158.218C462.267 158.354 462.297 158.499 462.298 158.646C462.298 158.792 462.27 158.938 462.214 159.074C462.179 159.164 462.131 159.248 462.072 159.325C461.928 159.52 461.725 159.662 461.492 159.729C461.26 159.797 461.012 159.787 460.786 159.7C460.56 159.613 460.369 159.454 460.242 159.248C460.115 159.042 460.058 158.8 460.081 158.559V158.559Z" stroke="black" stroke-linecap="round" stroke-linejoin="round"/>
<path d="M463.099 148.695C462.991 148.966 462.805 149.199 462.565 149.364C462.325 149.529 462.041 149.619 461.75 149.623C461.459 149.627 461.173 149.544 460.929 149.385C460.684 149.226 460.493 148.998 460.378 148.73C460.263 148.462 460.23 148.166 460.283 147.88C460.336 147.593 460.473 147.328 460.676 147.119C460.88 146.911 461.14 146.767 461.425 146.706C461.71 146.646 462.006 146.671 462.277 146.779C462.456 146.851 462.62 146.957 462.759 147.092C462.897 147.228 463.008 147.389 463.084 147.567C463.16 147.745 463.201 147.936 463.203 148.13C463.206 148.323 463.17 148.515 463.099 148.695Z" stroke="black" stroke-linecap="round" stroke-linejoin="round"/>
<path d="M454.946 152.436C455.088 152.167 455.259 151.913 455.455 151.681C456.436 150.503 458.052 150.474 458.26 151.415C458.416 152.127 457.808 152.254 457.255 152.552C457.021 152.664 456.818 152.831 456.664 153.04C456.108 153.856 457.138 154.399 456.647 155.187C456.247 155.821 455.2 155.522 454.823 154.64C454.535 153.97 454.535 153.227 454.946 152.436Z" stroke="black" stroke-linecap="round" stroke-linejoin="round"/>
<path d="M451.617 157.989C451.939 158.471 452.111 159.115 452.081 159.947C452.027 161.479 450.767 162.493 450.027 161.876C449.241 161.22 450.352 160.549 450.296 159.613C450.253 158.904 449.647 158.81 449.277 158.469C449.113 158.325 449.012 158.122 448.997 157.905C448.925 157.159 449.935 156.754 450.773 157.218C451.112 157.403 451.402 157.668 451.617 157.989V157.989Z" stroke="black" stroke-linecap="round" stroke-linejoin="round"/>
<path d="M456.13 144.685L457.155 145.498L454.983 148.753C454.983 148.753 453.429 147.622 453.53 147.553C453.631 147.483 456.13 144.685 456.13 144.685Z" stroke="black" stroke-linecap="round" stroke-linejoin="round"/>
<path d="M455.461 159.896L455.375 163.221C455.375 163.221 457.295 162.969 457.35 162.843C457.404 162.717 456.926 159.606 456.926 159.606L455.461 159.896Z" stroke="black" stroke-linecap="round" stroke-linejoin="round"/>
<path d="M467.635 158.147L485.576 158.222C486.07 158.224 486.543 158.423 486.891 158.774C487.238 159.125 487.433 159.6 487.43 160.095C487.428 160.589 487.23 161.063 486.879 161.411C486.529 161.759 486.054 161.954 485.56 161.952L467.552 161.876" stroke="black" stroke-linecap="round" stroke-linejoin="round"/>
<path d="M486.112 160.089C486.113 159.955 486.073 159.824 485.999 159.712C485.925 159.6 485.82 159.512 485.696 159.461C485.572 159.409 485.436 159.395 485.305 159.421C485.173 159.446 485.052 159.511 484.957 159.605C484.862 159.7 484.797 159.82 484.77 159.952C484.744 160.084 484.757 160.22 484.808 160.344C484.859 160.468 484.945 160.575 485.057 160.65C485.168 160.724 485.299 160.765 485.433 160.765C485.522 160.765 485.61 160.748 485.692 160.714C485.774 160.681 485.849 160.631 485.912 160.568C485.975 160.505 486.025 160.431 486.06 160.349C486.094 160.266 486.112 160.178 486.112 160.089Z" stroke="black" stroke-linecap="round" stroke-linejoin="round"/>
<path d="M130.66 543.2H128.502L133.915 551.282V556.93H135.72V551.282L141.153 543.2H139.094L134.818 549.693L130.66 543.2Z" fill="black"/>
<path d="M140.025 552.282C140.025 555.028 141.927 557.127 144.732 557.127C147.518 557.127 149.459 555.028 149.459 552.282C149.459 549.536 147.557 547.437 144.732 547.437C141.927 547.437 140.025 549.536 140.025 552.282ZM147.714 552.282C147.714 554.243 146.478 555.597 144.732 555.597C143.006 555.597 141.751 554.224 141.751 552.282C141.751 550.34 143.006 548.967 144.732 548.967C145.615 548.967 146.321 549.281 146.87 549.909C147.439 550.517 147.714 551.321 147.714 552.282Z" fill="black"/>
<path d="M157.867 547.633V552.576C157.867 554.439 156.749 555.636 155.278 555.636C153.925 555.636 153.179 554.832 153.179 553.204V547.633H151.493V553.596C151.493 555.891 152.787 557.127 154.827 557.127C156.18 557.127 157.24 556.44 157.867 555.361V556.93H159.574V547.633H157.867Z" fill="black"/>
<path d="M162.181 547.633V556.93H163.868V551.007C163.868 549.752 164.554 548.928 165.594 548.928C166.516 548.928 167.084 549.457 167.084 550.32C167.084 550.497 167.065 550.732 167.026 551.007H168.673C168.752 550.693 168.791 550.34 168.791 549.967C168.791 548.555 167.751 547.437 166.241 547.437C165.123 547.437 164.28 547.986 163.868 548.987V547.633H162.181Z" fill="black"/>
<path d="M176.314 547.633H174.647L177.412 556.93H179.531L181.59 549.791L183.65 556.93H185.748L188.514 547.633H186.847L184.67 555.283L182.571 547.633H180.59L178.491 555.283L176.314 547.633Z" fill="black"/>
<path d="M196.838 553.557C196.465 554.891 195.582 555.636 194.151 555.636C192.503 555.636 191.208 554.557 191.189 552.537H197.917C197.995 552.184 198.034 551.811 198.034 551.399C198.034 550.183 197.662 549.222 196.897 548.516C196.132 547.79 195.131 547.437 193.896 547.437C191.248 547.437 189.463 549.555 189.463 552.223C189.463 555.224 191.424 557.127 194.151 557.127C196.289 557.127 197.681 556.009 198.309 554.126L196.838 553.557ZM191.189 551.321C191.365 549.85 192.444 548.928 193.876 548.928C195.288 548.928 196.367 549.712 196.367 551.046L196.347 551.321H191.189Z" fill="black"/>
<path d="M200.279 543.2V556.93H201.888V555.401C202.535 556.479 203.731 557.127 205.065 557.127C207.635 557.127 209.459 555.224 209.459 552.341C209.459 549.457 207.733 547.437 205.261 547.437C203.869 547.437 202.594 548.222 201.966 549.379V543.2H200.279ZM204.83 555.616C203.319 555.616 201.888 554.381 201.888 552.321C201.888 550.262 203.339 548.967 204.83 548.967C206.419 548.967 207.772 550.242 207.772 552.321C207.772 554.42 206.419 555.616 204.83 555.616Z" fill="black"/>
<path d="M210.856 554.498C211.405 556.087 212.837 557.127 214.936 557.127C217.035 557.127 218.663 555.91 218.663 554.184C218.663 552.635 217.584 551.713 215.407 551.419C213.582 551.164 212.916 550.811 212.916 550.007C212.916 549.281 213.7 548.81 214.72 548.81C215.72 548.81 216.446 549.281 216.76 550.222L218.074 549.497C217.505 548.182 216.466 547.437 214.72 547.437C213.759 547.437 212.955 547.672 212.308 548.163C211.68 548.634 211.366 549.242 211.366 549.987C211.366 551.458 212.425 552.341 214.563 552.655C216.446 552.909 217.015 553.4 217.015 554.282C217.015 555.087 216.25 555.636 215.014 555.636C213.602 555.636 212.778 555.087 212.249 553.773L210.856 554.498Z" fill="black"/>
<path d="M220.775 547.633V556.93H222.461V547.633H220.775ZM220.677 545.907H222.56V543.926H220.677V545.907Z" fill="black"/>
<path d="M226.065 554.165C226.065 556.028 227.144 557.127 229.105 557.127C230.694 557.127 231.753 556.205 232.008 554.537L230.439 554.184C230.282 555.204 229.831 555.636 229.046 555.636C228.321 555.636 227.772 555.126 227.772 554.243V549.065H231.106V547.633H227.772V544.75H226.065V547.633H224.221V549.065H226.065V554.165Z" fill="black"/>
<path d="M240.261 553.557C239.888 554.891 239.006 555.636 237.574 555.636C235.926 555.636 234.632 554.557 234.612 552.537H241.34C241.418 552.184 241.458 551.811 241.458 551.399C241.458 550.183 241.085 549.222 240.32 548.516C239.555 547.79 238.555 547.437 237.319 547.437C234.671 547.437 232.886 549.555 232.886 552.223C232.886 555.224 234.848 557.127 237.574 557.127C239.712 557.127 241.104 556.009 241.732 554.126L240.261 553.557ZM234.612 551.321C234.789 549.85 235.867 548.928 237.299 548.928C238.712 548.928 239.79 549.712 239.79 551.046L239.771 551.321H234.612Z" fill="black"/>
<path d="M293.61 17.1962C296.101 17.1962 297.71 16.0586 298.789 13.9206V17H300.338V9.89969H291.924V11.5865H298.141C297.906 13.3126 296.435 15.4897 293.826 15.4897C290.786 15.4897 288.766 13.293 288.766 10.1351C288.766 6.93793 291.002 4.78036 293.728 4.78036C296.298 4.78036 297.867 5.97683 298.455 8.38939L300.22 7.80096C299.514 4.89805 297.259 3.07392 293.708 3.07392C289.884 2.99547 286.824 6.19259 286.883 10.1351C286.824 14.1952 289.786 17.255 293.61 17.1962Z" fill="black"/>
<path d="M309.147 7.70289V12.6457C309.147 14.509 308.029 15.7055 306.557 15.7055C305.204 15.7055 304.459 14.9013 304.459 13.2733V7.70289H302.772V13.6656C302.772 15.9605 304.066 17.1962 306.106 17.1962C307.46 17.1962 308.519 16.5097 309.147 15.4309V17H310.853V7.70289H309.147Z" fill="black"/>
<path d="M313.46 7.70289V17H315.147V11.3119C315.147 9.80161 315.932 9.03666 316.952 9.03666C317.971 9.03666 318.658 9.70354 318.658 10.9785V17H320.364V11.2138C320.364 9.782 321.169 9.03666 322.189 9.03666C323.189 9.03666 323.895 9.74277 323.895 10.9V17H325.582V10.547C325.582 8.58553 324.483 7.50675 322.757 7.50675C321.58 7.50675 320.521 8.17363 320.031 9.35049C319.717 8.15402 318.776 7.50675 317.658 7.50675C316.422 7.50675 315.598 8.09517 315.147 9.01704V7.70289H313.46Z" fill="black"/>
<path d="M328.209 7.70289V17H329.896V11.0765C329.896 9.82123 330.583 8.99743 331.622 8.99743C332.544 8.99743 333.113 9.52701 333.113 10.39C333.113 10.5666 333.093 10.8019 333.054 11.0765H334.701C334.78 10.7627 334.819 10.4097 334.819 10.037C334.819 8.62476 333.78 7.50675 332.269 7.50675C331.151 7.50675 330.308 8.05594 329.896 9.05627V7.70289H328.209Z" fill="black"/>
<path d="M336.107 12.3515C336.107 15.0975 338.009 17.1962 340.814 17.1962C343.599 17.1962 345.541 15.0975 345.541 12.3515C345.541 9.60547 343.639 7.50675 340.814 7.50675C338.009 7.50675 336.107 9.60547 336.107 12.3515ZM343.795 12.3515C343.795 14.3129 342.56 15.6663 340.814 15.6663C339.088 15.6663 337.833 14.2933 337.833 12.3515C337.833 10.4097 339.088 9.03666 340.814 9.03666C341.697 9.03666 342.403 9.35049 342.952 9.97814C343.521 10.5862 343.795 11.3904 343.795 12.3515Z" fill="black"/>
<path d="M347.143 14.3521C347.143 15.2151 347.437 15.9016 348.026 16.4312C348.634 16.9412 349.359 17.1962 350.222 17.1962C351.713 17.1962 352.949 16.5293 353.419 15.529V17H355.047V11.1746C355.047 8.87974 353.616 7.50675 351.085 7.50675C348.908 7.50675 347.457 8.64437 347.084 10.4293L348.614 10.8608C348.849 9.66431 349.752 8.93859 351.085 8.93859C352.478 8.93859 353.419 9.68393 353.419 11.0373V11.9984L352.576 11.763C351.948 11.5669 351.282 11.4688 350.595 11.4688C348.575 11.4688 347.143 12.4495 347.143 14.3521ZM353.419 13.5283C353.419 14.8817 352.341 15.7055 350.791 15.7055C349.555 15.7055 348.889 15.1171 348.889 14.2541C348.889 13.293 349.634 12.783 350.83 12.783C351.321 12.783 351.909 12.8811 352.556 13.0772L353.419 13.3322V13.5283Z" fill="black"/>
<path d="M357.1 12.4103C357.1 15.2544 358.885 17.1962 361.454 17.1962C362.867 17.1962 364.044 16.4508 364.671 15.3328V17H366.299V3.27007H364.593V9.38971C363.985 8.23247 362.847 7.50675 361.415 7.50675C358.885 7.50675 357.1 9.52701 357.1 12.4103ZM364.671 12.3907C364.671 14.4698 363.18 15.6859 361.729 15.6859C360.199 15.6859 358.787 14.4894 358.787 12.3907C358.787 10.3116 360.219 9.03666 361.729 9.03666C363.18 9.03666 364.671 10.3312 364.671 12.3907Z" fill="black"/>
<path d="M375.701 11.3511H379.958C382.723 11.3511 384.41 9.48779 384.41 7.3106C384.41 5.07458 382.802 3.27007 379.958 3.27007H373.897V17H375.701V11.3511ZM375.701 9.6447V4.97651H379.801C381.429 4.97651 382.508 5.81992 382.508 7.3106C382.508 8.80129 381.429 9.6447 379.801 9.6447H375.701Z" fill="black"/>
<path d="M386.496 7.70289V17H388.183V11.0765C388.183 9.82123 388.87 8.99743 389.909 8.99743C390.831 8.99743 391.4 9.52701 391.4 10.39C391.4 10.5666 391.38 10.8019 391.341 11.0765H392.989C393.067 10.7627 393.106 10.4097 393.106 10.037C393.106 8.62476 392.067 7.50675 390.557 7.50675C389.439 7.50675 388.595 8.05594 388.183 9.05627V7.70289H386.496Z" fill="black"/>
<path d="M394.394 12.3515C394.394 15.0975 396.297 17.1962 399.101 17.1962C401.887 17.1962 403.828 15.0975 403.828 12.3515C403.828 9.60547 401.926 7.50675 399.101 7.50675C396.297 7.50675 394.394 9.60547 394.394 12.3515ZM402.083 12.3515C402.083 14.3129 400.847 15.6663 399.101 15.6663C397.375 15.6663 396.12 14.2933 396.12 12.3515C396.12 10.4097 397.375 9.03666 399.101 9.03666C399.984 9.03666 400.69 9.35049 401.239 9.97814C401.808 10.5862 402.083 11.3904 402.083 12.3515Z" fill="black"/>
<path d="M406.747 17H408.433V9.13473H411.062V7.70289H408.433V6.32989C408.433 5.11381 408.924 4.50576 409.905 4.50576C410.826 4.50576 411.395 5.01574 411.395 5.89838L411.376 6.25143H412.964C412.984 6.13375 412.984 5.99645 412.984 5.81992C412.984 4.19194 411.944 3.07392 409.905 3.07392C407.884 3.07392 406.747 4.34885 406.747 6.29066V7.70289H404.668V9.13473H406.747V17Z" fill="black"/>
<path d="M413.868 7.70289V17H415.555V7.70289H413.868ZM413.77 5.97683H415.653V3.99579H413.77V5.97683Z" fill="black"/>
<path d="M418.178 17H419.865V3.27007H418.178V17Z" fill="black"/>
<path d="M429.294 13.6264C428.921 14.9602 428.039 15.7055 426.607 15.7055C424.959 15.7055 423.665 14.6267 423.645 12.6065H430.373C430.451 12.2534 430.49 11.8807 430.49 11.4688C430.49 10.2527 430.118 9.29164 429.353 8.58553C428.588 7.8598 427.588 7.50675 426.352 7.50675C423.704 7.50675 421.919 9.62509 421.919 12.2926C421.919 15.2936 423.88 17.1962 426.607 17.1962C428.745 17.1962 430.137 16.0782 430.765 14.1952L429.294 13.6264ZM423.645 11.3904C423.822 9.9193 424.9 8.99743 426.332 8.99743C427.744 8.99743 428.823 9.782 428.823 11.1158L428.804 11.3904H423.645Z" fill="black"/>
<path d="M119.344 551.303C119.658 551.101 119.75 550.682 119.548 550.367C119.346 550.053 118.927 549.961 118.613 550.163L119.344 551.303ZM88.0677 539.919C87.7067 539.822 87.3352 540.036 87.2378 540.397L85.6508 546.279C85.5534 546.639 85.767 547.011 86.128 547.108C86.4889 547.206 86.8605 546.992 86.9578 546.631L88.3685 541.403L93.5969 542.814C93.9578 542.911 94.3294 542.697 94.4267 542.336C94.5241 541.975 94.3105 541.604 93.9495 541.506L88.0677 539.919ZM117.501 550.835C117.176 551.02 117.062 551.433 117.247 551.758C117.432 552.083 117.845 552.197 118.17 552.012L117.501 550.835ZM115.714 553.242C116.057 553.093 116.214 552.694 116.064 552.351C115.915 552.008 115.516 551.851 115.174 552L115.714 553.242ZM112.738 552.9C112.38 553.008 112.179 553.386 112.287 553.744C112.396 554.102 112.774 554.304 113.132 554.195L112.738 552.9ZM110.445 554.83C110.813 554.768 111.062 554.419 111 554.05C110.938 553.682 110.589 553.433 110.22 553.495L110.445 554.83ZM107.656 553.745C107.283 553.754 106.987 554.064 106.997 554.438C107.006 554.812 107.316 555.107 107.69 555.098L107.656 553.745ZM104.917 554.956C105.288 555.004 105.627 554.742 105.675 554.372C105.723 554.001 105.461 553.661 105.09 553.614L104.917 554.956ZM102.579 553.088C102.22 552.983 101.844 553.189 101.739 553.548C101.634 553.906 101.84 554.282 102.199 554.387L102.579 553.088ZM99.6002 553.406C99.9391 553.564 100.342 553.417 100.5 553.078C100.657 552.739 100.511 552.337 100.172 552.179L99.6002 553.406ZM97.9156 550.928C97.6016 550.726 97.1826 550.816 96.9797 551.13C96.7768 551.444 96.8669 551.863 97.1809 552.066L97.9156 550.928ZM94.9623 550.429C95.2495 550.668 95.6763 550.629 95.9156 550.342C96.1549 550.055 96.116 549.628 95.8287 549.389L94.9623 550.429ZM93.9226 547.622C93.6615 547.354 93.233 547.349 92.9654 547.61C92.6979 547.871 92.6926 548.3 92.9537 548.567L93.9226 547.622ZM91.1373 546.531C91.3741 546.821 91.8006 546.863 92.0898 546.626C92.3791 546.389 92.4216 545.963 92.1848 545.674L91.1373 546.531ZM90.5952 543.574C90.3804 543.268 89.9582 543.194 89.6522 543.409C89.3463 543.624 89.2724 544.046 89.4872 544.352L90.5952 543.574ZM88.0032 542.088C88.1986 542.406 88.6153 542.506 88.9341 542.311C89.2528 542.116 89.3529 541.699 89.1575 541.38L88.0032 542.088ZM118.613 550.163C118.266 550.385 117.895 550.611 117.501 550.835L118.17 552.012C118.586 551.775 118.978 551.537 119.344 551.303L118.613 550.163ZM115.174 552C114.409 552.333 113.594 552.639 112.738 552.9L113.132 554.195C114.042 553.918 114.906 553.593 115.714 553.242L115.174 552ZM110.22 553.495C109.39 553.635 108.533 553.723 107.656 553.745L107.69 555.098C108.635 555.074 109.556 554.98 110.445 554.83L110.22 553.495ZM105.09 553.614C104.265 553.507 103.426 553.336 102.579 553.088L102.199 554.387C103.116 554.655 104.024 554.841 104.917 554.956L105.09 553.614ZM100.172 552.179C99.4235 551.83 98.6705 551.416 97.9156 550.928L97.1809 552.066C97.9871 552.587 98.7946 553.031 99.6002 553.406L100.172 552.179ZM95.8287 549.389C95.1924 548.859 94.5564 548.271 93.9226 547.622L92.9537 548.567C93.6188 549.249 94.2888 549.868 94.9623 550.429L95.8287 549.389ZM92.1848 545.674C91.6517 545.022 91.1214 544.324 90.5952 543.574L89.4872 544.352C90.0317 545.128 90.5821 545.853 91.1373 546.531L92.1848 545.674ZM89.1575 541.38C88.93 541.009 88.7035 540.627 88.4782 540.236L87.3045 540.91C87.5361 541.313 87.769 541.705 88.0032 542.088L89.1575 541.38Z" fill="black"/>
<path d="M448.78 9.03382C448.427 9.15519 448.239 9.54022 448.36 9.89382C448.481 10.2474 448.866 10.4357 449.22 10.3143L448.78 9.03382ZM475.03 25.9619C475.329 26.1873 475.753 26.1283 475.979 25.83L479.652 20.9699C479.877 20.6716 479.818 20.2471 479.52 20.0217C479.222 19.7963 478.797 19.8553 478.572 20.1536L475.307 24.4737L470.986 21.2085C470.688 20.9831 470.264 21.0421 470.038 21.3403C469.813 21.6386 469.872 22.0631 470.17 22.2885L475.03 25.9619ZM450.436 9.92324C450.794 9.81578 450.998 9.43838 450.89 9.08032C450.783 8.72225 450.405 8.5191 450.047 8.62656L450.436 9.92324ZM452.635 7.96042C452.269 8.03887 452.037 8.39879 452.115 8.76431C452.194 9.12983 452.554 9.36255 452.919 9.2841L452.635 7.96042ZM455.441 8.85661C455.812 8.81096 456.075 8.47316 456.03 8.10211C455.984 7.73106 455.646 7.46727 455.275 7.51292L455.441 8.85661ZM457.956 7.31963C457.582 7.32662 457.285 7.6353 457.292 8.00909C457.299 8.38287 457.608 8.68021 457.982 8.67321L457.956 7.31963ZM460.511 8.7773C460.883 8.8164 461.216 8.54669 461.255 8.17489C461.294 7.8031 461.025 7.47 460.653 7.4309L460.511 8.7773ZM463.326 7.90736C462.964 7.81415 462.594 8.03208 462.501 8.39412C462.408 8.75616 462.626 9.12522 462.988 9.21843L463.326 7.90736ZM465.347 10.0406C465.688 10.1938 466.089 10.0417 466.242 9.70066C466.395 9.35967 466.243 8.959 465.902 8.80575L465.347 10.0406ZM468.288 10.1543C467.981 9.94078 467.559 10.0164 467.345 10.3233C467.132 10.6301 467.207 11.052 467.514 11.2655L468.288 10.1543ZM469.413 12.8688C469.675 13.1351 470.104 13.1382 470.37 12.8758C470.637 12.6134 470.64 12.1848 470.377 11.9186L469.413 12.8688ZM472.117 14.0178C471.903 13.7113 471.481 13.6362 471.174 13.8502C470.868 14.0641 470.793 14.4861 471.007 14.7927L472.117 14.0178ZM472.29 16.957C472.457 17.2911 472.864 17.4259 473.198 17.2581C473.532 17.0903 473.667 16.6835 473.499 16.3494L472.29 16.957ZM474.56 18.8294C474.433 18.4778 474.045 18.2958 473.694 18.4229C473.342 18.55 473.16 18.9381 473.287 19.2896L474.56 18.8294ZM474.034 21.7308C474.127 22.093 474.496 22.3115 474.858 22.2188C475.22 22.1261 475.438 21.7573 475.346 21.3952L474.034 21.7308ZM475.901 24.0005C475.837 23.6322 475.487 23.3856 475.119 23.4497C474.75 23.5138 474.504 23.8643 474.568 24.2326L475.901 24.0005ZM449.22 10.3143C449.606 10.1819 450.012 10.0505 450.436 9.92324L450.047 8.62656C449.606 8.75908 449.182 8.89583 448.78 9.03382L449.22 10.3143ZM452.919 9.2841C453.729 9.11028 454.574 8.96326 455.441 8.85661L455.275 7.51292C454.365 7.62493 453.48 7.77899 452.635 7.96042L452.919 9.2841ZM457.982 8.67321C458.821 8.6575 459.668 8.68863 460.511 8.7773L460.653 7.4309C459.749 7.33585 458.846 7.30297 457.956 7.31963L457.982 8.67321ZM462.988 9.21843C463.791 9.42511 464.58 9.69594 465.347 10.0406L465.902 8.80575C465.06 8.42735 464.197 8.13183 463.326 7.90736L462.988 9.21843ZM467.514 11.2655C468.174 11.7249 468.81 12.2564 469.413 12.8688L470.377 11.9186C469.715 11.2463 469.016 10.661 468.288 10.1543L467.514 11.2655ZM471.007 14.7927C471.463 15.4468 471.893 16.1663 472.29 16.957L473.499 16.3494C473.074 15.5032 472.612 14.7275 472.117 14.0178L471.007 14.7927ZM473.287 19.2896C473.562 20.0505 473.812 20.8632 474.034 21.7308L475.346 21.3952C475.114 20.4878 474.851 19.6334 474.56 18.8294L473.287 19.2896ZM474.568 24.2326C474.64 24.6494 474.707 25.0768 474.768 25.5151L476.109 25.3286C476.046 24.8755 475.977 24.4329 475.901 24.0005L474.568 24.2326Z" fill="black"/>
<rect x="1.2793" y="305.748" width="305.111" height="212.488" rx="5.4484" fill="black" stroke="black" stroke-width="2"/>
<line x1="12" y1="337.5" x2="28" y2="337.5" stroke="white"/>
<line x1="12" y1="342.5" x2="28" y2="342.5" stroke="white"/>
<line x1="12" y1="347.5" x2="28" y2="347.5" stroke="white"/>
<path d="M1 310.734C1 307.724 3.43933 305.285 6.4484 305.285H300.552C303.561 305.285 306 307.724 306 310.734V329.285H1V310.734Z" fill="white" stroke="black" stroke-width="2"/>
<circle cx="23.4586" cy="317.057" r="2.77203" fill="#FFC900"/>
<circle cx="14.772" cy="317.057" r="2.77203" fill="#E2442F"/>
<circle cx="31.774" cy="317.057" r="2.77203" fill="#23A094"/>
<rect x="81.915" y="354.783" width="143.844" height="127.247" rx="3.68831" fill="white" stroke="black" stroke-width="1.08968"/>
<path d="M81.915 358.472C81.915 356.435 83.5664 354.783 85.6033 354.783H222.065C224.102 354.783 225.753 356.435 225.753 358.472V417.985H81.915V358.472Z" fill="#90A8ED" stroke="black" stroke-width="1.08968"/>
<rect x="91.1357" y="428.337" width="59.0129" height="6" rx="3" fill="black" stroke="black"/>
<rect x="91.1357" y="441.247" width="68.2337" height="3.68831" rx="1.84415" fill="#D6D3D1"/>
<rect x="190" y="441" width="19" height="4" rx="2" fill="#D6D3D1"/>
<rect x="91.1357" y="456" width="62.7012" height="3.68831" rx="1.84415" fill="#D6D3D1"/>
<rect x="91.1357" y="449" width="55.3246" height="3.68831" rx="1.84415" fill="#D6D3D1"/>
<rect x="190" y="449" width="15" height="4" rx="2" fill="#D6D3D1"/>
<rect x="91.1357" y="463" width="59.0129" height="3.68831" rx="1.84415" fill="#D6D3D1"/>
<path d="M81.916 358.472C81.916 356.435 83.5673 354.783 85.6043 354.783H222.066C224.103 354.783 225.754 356.435 225.754 358.472V417.985H81.916V358.472Z" fill="#D6D3D1" stroke="black" stroke-width="1.08968"/>
<mask id="mask1_935_15804" style="mask-type:alpha" maskUnits="userSpaceOnUse" x="81" y="354" width="146" height="65">
<path d="M81.916 358.472C81.916 356.435 83.5673 354.783 85.6043 354.783H222.066C224.103 354.783 225.754 356.435 225.754 358.472V417.985H81.916V358.472Z" fill="#D6D3D1" stroke="black" stroke-width="1.08968"/>
</mask>
<g mask="url(#mask1_935_15804)">
<path d="M108 409.942C108 409.942 129.148 401.717 149.893 408.302C173.074 415.66 191.787 409.644 191.787 409.644V364.155C191.787 364.155 173.077 370.16 149.9 362.808C129.15 356.225 108 364.49 108 364.49V409.942Z" fill="white" stroke="black"/>
<path d="M119.996 376.35L120.026 372.562L111.596 372.493L111.565 376.281C111.938 376.242 112.93 376.25 113.921 376.259C113.854 384.584 113.7 398.571 113.575 403.732L117.543 403.764C117.502 398.56 117.573 384.615 117.765 376.29C118.674 376.298 119.707 376.306 119.996 376.35Z" fill="black"/>
<path d="M125.147 365.646L121.18 365.614C121.168 372.191 120.924 381.889 120.872 388.341C120.863 389.548 120.893 390.881 121.087 392.464C121.437 395.215 122.91 397.017 125.679 397.04C129.067 397.068 130.655 394.957 130.704 388.838C130.755 382.636 130.801 371.812 130.933 365.694L126.965 365.661C127.039 371.948 126.979 384.436 126.844 390.888C126.79 392.511 126.332 392.924 125.753 392.919C125.258 392.915 124.848 392.495 124.776 391.079C124.742 390.163 124.746 389.664 124.715 388.498C124.718 382.919 125.003 373.263 125.147 365.646Z" fill="black"/>
<path d="M140.376 369.468L140.407 365.68L131.976 365.611L131.946 369.399C132.318 369.36 133.31 369.368 134.301 369.376C134.234 377.702 134.08 391.688 133.956 396.849L137.923 396.882C137.882 391.678 137.953 377.732 138.145 369.408C139.054 369.415 140.087 369.424 140.376 369.468Z" fill="black"/>
<path d="M145.76 369.827C141.751 369.794 140.05 375.691 139.97 385.64C139.888 395.797 141.576 401.722 145.502 401.755C149.428 401.787 151.211 395.89 151.293 385.733C151.374 375.659 149.727 369.859 145.76 369.827ZM145.53 398.258C144.786 398.252 144.033 394.249 144.102 385.674C144.171 377.14 144.986 373.484 145.73 373.49C146.474 373.496 147.229 377.165 147.161 385.699C147.091 394.274 146.274 398.264 145.53 398.258Z" fill="black"/>
<path d="M159.961 404.361L164.013 404.145C163.055 399.932 161.225 391.092 160.114 385.421C161.61 384.393 162.78 382.737 162.801 380.239C162.841 375.286 159.306 372.884 152.777 372.705C152.85 384.196 152.745 397.184 152.524 404.051L156.492 404.083C156.48 400.378 156.493 393.717 156.589 386.849L156.714 386.809C158.025 393.272 159.373 400.443 159.961 404.361ZM158.916 380.249C158.905 381.623 157.986 382.739 156.619 383.228C156.635 381.188 156.652 379.148 156.667 377.192C158.317 377.663 158.929 378.542 158.916 380.249Z" fill="black"/>
<path d="M164.602 373.019C164.628 380.013 164.455 396.372 164.35 404.239L168.317 404.272C168.298 396.403 168.43 380.044 168.569 373.051L164.602 373.019Z" fill="black"/>
<path d="M176.03 408.363L179.998 408.395C179.196 400.229 177.761 383.358 177.357 377.151L171.943 377.107C171.033 387.507 169.818 399.778 168.84 408.304L172.766 408.336C172.96 404.758 173.248 399.848 173.619 394.813C174.197 394.818 174.9 394.824 175.478 394.829C175.763 400.534 175.969 405.74 176.03 408.363ZM173.773 391.026C174.052 387.24 174.329 383.579 174.601 380.626L174.725 380.627C174.909 383.459 175.127 387.208 175.302 391.039C174.806 391.035 174.269 391.03 173.773 391.026Z" fill="black"/>
<path d="M187.627 400.309C186.511 400.383 185.477 400.416 184.568 400.409C184.606 390.543 184.667 377.971 184.833 372.727L180.783 372.694C180.821 378.272 180.751 397.089 180.531 403.914C183.176 403.852 185.656 403.914 187.598 403.972L187.627 400.309Z" fill="black"/>
</g>
<rect x="190" y="427" width="26" height="6" rx="3" fill="#FF90E8"/>
<path d="M226 45.7336C226 42.7245 228.439 40.2852 231.448 40.2852H525.552C528.561 40.2852 531 42.7245 531 45.7336V64.2852H226V45.7336Z" fill="white" stroke="black" stroke-width="2.17936"/>
<circle cx="248.459" cy="52.0572" r="2.77203" fill="#FFC900"/>
<circle cx="239.772" cy="52.0572" r="2.77203" fill="#E2442F"/>
<circle cx="256.774" cy="52.0572" r="2.77203" fill="#23A094"/>
<rect x="50.3145" y="153.452" width="101.152" height="99.0878" rx="16.3452" fill="#FF7051" stroke="black" stroke-width="2.17936"/>
<path d="M87.4228 209.323C87.4228 212.022 85.2184 214.226 82.52 214.226C79.8215 214.226 77.6172 212.022 77.6172 209.323C77.6172 206.625 79.8215 204.42 82.52 204.42H87.4228V209.323Z" fill="black"/>
<path d="M89.8906 209.322C89.8906 206.624 92.095 204.419 94.7934 204.419C97.4919 204.419 99.6962 206.624 99.6962 209.322V221.598C99.6962 224.296 97.4919 226.501 94.7934 226.501C92.095 226.501 89.8906 224.296 89.8906 221.598V209.322Z" fill="black"/>
<path d="M94.7972 189.635C92.0988 189.635 89.8945 187.431 89.8945 184.732C89.8945 182.034 92.0988 179.83 94.7972 179.83C97.4956 179.83 99.6999 182.034 99.6999 184.732V189.635H94.7972Z" fill="black"/>
<path d="M94.7959 192.106C97.4943 192.106 99.6987 194.31 99.6987 197.008C99.6987 199.707 97.4943 201.911 94.7959 201.911H82.52C79.8215 201.911 77.6172 199.707 77.6172 197.008C77.6172 194.31 79.8215 192.106 82.52 192.106H94.7959Z" fill="black"/>
<path d="M114.483 197.009C114.483 194.31 116.688 192.106 119.386 192.106C122.085 192.106 124.289 194.31 124.289 197.009C124.289 199.707 122.085 201.912 119.386 201.912H114.483V197.009Z" fill="black"/>
<path d="M112.014 197.008C112.014 199.707 109.81 201.911 107.112 201.911C104.413 201.911 102.209 199.707 102.209 197.008V184.732C102.209 182.034 104.413 179.83 107.112 179.83C109.81 179.83 112.014 182.034 112.014 184.732V197.008Z" fill="black"/>
<path d="M107.11 216.696C109.808 216.696 112.013 218.901 112.013 221.599C112.013 224.298 109.808 226.502 107.11 226.502C104.411 226.502 102.207 224.298 102.207 221.599V216.696H107.11Z" fill="black"/>
<path d="M107.111 214.225C104.412 214.225 102.208 212.02 102.208 209.322C102.208 206.624 104.412 204.419 107.111 204.419H119.387C122.085 204.419 124.289 206.624 124.289 209.322C124.289 212.02 122.085 214.225 119.387 214.225H107.111Z" fill="black"/>
<rect x="389.75" y="453.659" width="101.152" height="99.0878" rx="16.3452" fill="#90A8ED" stroke="black" stroke-width="2.17936"/>
<path d="M454.252 495.867C454.252 495.867 450.119 509.172 449.782 510.271C449.66 509.141 446.629 485.26 446.629 485.26C439.589 485.26 435.824 490.407 433.834 495.836C433.834 495.836 428.814 509.172 428.385 510.302C428.355 509.266 427.62 495.992 427.62 495.992C427.192 489.34 421.253 485.292 416.447 485.292L422.263 521.473C429.64 521.442 433.62 516.327 435.701 510.898C435.701 510.898 440.14 499.13 440.324 498.597C440.354 499.099 443.507 521.473 443.507 521.473C450.915 521.473 454.894 516.672 457.037 511.432L467.414 485.292C460.098 485.292 456.241 490.407 454.252 495.867Z" fill="black"/>
<rect x="50.3145" y="12.8833" width="101.152" height="99.0878" rx="16.3452" fill="#23A094" stroke="black" stroke-width="2.17936"/>
<circle cx="101.358" cy="63.0008" r="26.3775" fill="black"/>
<path d="M101.193 77.6905C106.005 77.6905 109.198 76.2296 112.008 73.876C112.476 73.4703 112.86 72.8616 112.86 72.0906C112.86 70.8326 111.71 69.7775 110.39 69.7775C109.751 69.7775 109.198 70.021 108.815 70.3457C106.643 72.0906 104.514 73.0645 101.363 73.0645C95.6579 73.0645 91.5278 68.5602 91.5278 63.0008V62.9197C91.5278 57.3603 95.7005 52.8966 101.363 52.8966C104.216 52.8966 106.43 53.8705 108.474 55.4531C108.815 55.6966 109.326 55.94 110.049 55.94C111.497 55.94 112.647 54.885 112.647 53.5053C112.647 52.6126 112.178 51.9227 111.625 51.5169C109.028 49.6097 106.005 48.3112 101.406 48.3112C92.3794 48.3112 86.0352 54.9256 86.0352 63.0008V63.082C86.0352 71.2384 92.5071 77.6905 101.193 77.6905Z" fill="#23A094"/>
<rect x="391.298" y="309.42" width="101.152" height="99.0878" rx="15.0059" fill="black"/>
<rect x="388.66" y="305.463" width="101.152" height="99.0878" rx="16.3452" fill="#FFC900" stroke="black" stroke-width="2.17936"/>
<path d="M444.242 355.003C444.242 356.517 443.969 358.018 443.435 359.435C442.018 359.968 440.517 360.242 439.002 360.242H438.984C437.47 360.242 435.968 359.969 434.551 359.435C434.017 358.018 433.743 356.517 433.743 355.002V354.983C433.743 353.423 434.029 351.928 434.548 350.55C435.965 350.015 437.467 349.742 438.982 349.743H438.999C440.56 349.743 442.053 350.029 443.432 350.55C443.966 351.967 444.239 353.468 444.239 354.983V355.002H444.241L444.242 355.003ZM459.695 351.494H447.441L456.105 342.829C454.743 340.916 453.07 339.244 451.156 337.882L442.491 346.546V334.292C441.339 334.098 440.173 334.001 439.004 334H438.982C437.793 334 436.629 334.102 435.494 334.292V346.546L426.827 337.881C425.873 338.561 424.977 339.319 424.149 340.148L424.145 340.152C423.317 340.98 422.56 341.876 421.881 342.83L430.548 351.494H418.292C418.292 351.494 418 353.796 418 354.986V355C418 356.19 418.101 357.357 418.292 358.492H430.548L421.88 367.155C423.243 369.068 424.916 370.741 426.829 372.104L435.495 363.44V375.695C436.628 375.885 437.791 375.985 438.978 375.986H439.008C440.175 375.985 441.34 375.888 442.491 375.695V363.44L451.157 372.106C452.112 371.426 453.008 370.668 453.837 369.839H453.839C454.667 369.01 455.424 368.113 456.103 367.159L447.439 358.493H459.695C459.885 357.358 459.986 356.196 459.986 355.008V354.978C459.986 353.81 459.888 352.646 459.695 351.495L459.695 351.494Z" fill="black"/>
</svg>
